<?xml version="1.0" encoding="iso-8859-1"?>
<!-- Uploaded to: SVG Repo, www.svgrepo.com, Generator: SVG Repo Mixer Tools -->
<svg height="800px" width="800px" version="1.1" id="Capa_1" xmlns="http://www.w3.org/2000/svg" xmlns:xlink="http://www.w3.org/1999/xlink" 
	 viewBox="0 0 165.324 165.324" xml:space="preserve">
<g>
	<g>
		<g>
			<path style="fill:currentColor;" d="M99.426,64.562c-2.542-1.76-7.399-3.634-14.523-5.615V36.475c4.242,0.155,7.333,1.796,9.267,4.911
				c1.05,1.659,1.677,3.682,1.874,6.015h8.079c-0.155-5.203-1.862-9.398-5.149-12.566c-3.252-3.162-7.954-4.964-14.07-5.412v-6.021
				h-4.362v6.128c-6.182,0.06-10.991,1.969-14.41,5.722c-3.425,3.753-5.132,7.948-5.132,12.62c0,5.215,1.593,9.314,4.756,12.262
				c3.186,2.948,8.103,5.066,14.792,6.331v25.091c-5.209-0.412-8.783-2.363-10.687-5.842c-1.092-1.927-1.754-5.018-1.981-9.219
				h-8.187c0,5.287,0.883,9.481,2.643,12.59c3.174,5.74,9.267,8.891,18.211,9.481v8.95h4.362v-8.95
				c5.579-0.621,9.821-1.862,12.763-3.771c5.34-3.443,7.996-9.255,7.996-17.435C105.661,71.716,103.561,67.426,99.426,64.562z
				 M80.541,58.052c-3.449-0.668-6.182-1.868-8.21-3.598c-2.029-1.712-3.037-4.105-3.037-7.136c0-2.524,0.859-4.935,2.578-7.256
				c1.718-2.285,4.6-3.532,8.67-3.67C80.541,36.392,80.541,58.052,80.541,58.052z M95.786,86.024
				c-2.011,3.604-5.615,5.513-10.89,5.758V67.545c3.855,1.05,6.581,2.142,8.198,3.312c2.834,2.005,4.242,4.929,4.242,8.783
				C97.338,82.05,96.824,84.169,95.786,86.024z"/>
		</g>
		<g>
			<path style="fill:currentColor;" d="M44.763,165.324v-34.411H20.407c-7.476,0-13.563-6.092-13.563-13.569V13.575
				C6.844,6.086,12.93,0,20.407,0h124.511c7.476,0,13.563,6.092,13.563,13.575v103.77c0,7.482-6.092,13.569-13.563,13.569H79.174
				L44.763,165.324z M20.407,5.961c-4.189,0-7.596,3.407-7.596,7.602v103.776c0,4.195,3.407,7.596,7.596,7.596H50.73v25.98
				l25.974-25.98h68.219c4.189,0,7.59-3.401,7.59-7.596V13.569c0-4.195-3.401-7.602-7.59-7.602H20.407V5.961z"/>
		</g>
	</g>
</g>
</svg>